<svg xmlns="http://www.w3.org/2000/svg" width="48" height="48" viewBox="0 0 48 48" role="img" aria-label="AI Voice Tutor">
  <defs>
    <linearGradient id="tile" x1="0" y1="0" x2="0" y2="1">
      <stop offset="0" stop-color="#2c3c4c"/>
      <stop offset="1" stop-color="#1e2a35"/>
    </linearGradient>
  </defs>

  <rect width="48" height="48" rx="11" fill="url(#tile)"/>

  <path d="M21 10 Q23.34 20.66 34 23 Q23.34 25.34 21 36 Q18.66 25.34 8 23 Q18.66 20.66 21 10 Z" fill="#f7f3ec"/>
  <path d="M35.5 8.5 Q36.4 12.6 40.5 13.5 Q36.4 14.4 35.5 18.5 Q34.6 14.4 30.5 13.5 Q34.6 12.6 35.5 8.5 Z" fill="#4caa78"/>
  <path d="M12 30 Q12.55 32.45 15 33 Q12.55 33.55 12 36 Q11.45 33.55 9 33 Q11.45 32.45 12 30 Z" fill="#f7f3ec" opacity="0.9"/>
</svg>
